<mxfile host="app.diagrams.net" agent="Mozilla/5.0 (Windows NT 10.0; Win64; x64) AppleWebKit/537.36 (KHTML, like Gecko) Chrome/127.0.0.0 Safari/537.36 Edg/127.0.0.0" version="24.7.6">
  <diagram id="hmFBvVAuuyltjY6xelHN" name="Page-1">
    <mxGraphModel dx="1027" dy="669" grid="1" gridSize="10" guides="1" tooltips="1" connect="1" arrows="1" fold="1" page="1" pageScale="1" pageWidth="827" pageHeight="1169" math="0" shadow="0">
      <root>
        <mxCell id="0" />
        <mxCell id="1" parent="0" />
        <mxCell id="jGIwFINWtiYuZmQLNGsj-2" value="&lt;span style=&quot;font-family: Consolas, &amp;quot;Courier New&amp;quot;, monospace; font-size: 14px; font-style: normal; font-variant-ligatures: normal; font-variant-caps: normal; font-weight: 400; letter-spacing: normal; orphans: 2; text-align: start; text-indent: 0px; text-transform: none; widows: 2; word-spacing: 0px; -webkit-text-stroke-width: 0px; white-space: pre; text-decoration-thickness: initial; text-decoration-style: initial; text-decoration-color: initial;&quot;&gt;RobertaModel(&lt;br&gt;&lt;/span&gt;&lt;span style=&quot;font-family: Consolas, &amp;quot;Courier New&amp;quot;, monospace; font-size: 14px; font-style: normal; font-variant-ligatures: normal; font-variant-caps: normal; font-weight: 400; letter-spacing: normal; orphans: 2; text-align: start; text-indent: 0px; text-transform: none; widows: 2; word-spacing: 0px; -webkit-text-stroke-width: 0px; white-space: pre; text-decoration-thickness: initial; text-decoration-style: initial; text-decoration-color: initial;&quot;&gt;  (embeddings): RobertaEmbeddings(&lt;br&gt;&lt;/span&gt;&lt;span style=&quot;font-family: Consolas, &amp;quot;Courier New&amp;quot;, monospace; font-size: 14px; font-style: normal; font-variant-ligatures: normal; font-variant-caps: normal; font-weight: 400; letter-spacing: normal; orphans: 2; text-align: start; text-indent: 0px; text-transform: none; widows: 2; word-spacing: 0px; -webkit-text-stroke-width: 0px; white-space: pre; text-decoration-thickness: initial; text-decoration-style: initial; text-decoration-color: initial;&quot;&gt;    (word_embeddings): Embedding(30000, 768, padding_idx=1)&lt;br&gt;&lt;/span&gt;&lt;span style=&quot;font-family: Consolas, &amp;quot;Courier New&amp;quot;, monospace; font-size: 14px; font-style: normal; font-variant-ligatures: normal; font-variant-caps: normal; font-weight: 400; letter-spacing: normal; orphans: 2; text-align: start; text-indent: 0px; text-transform: none; widows: 2; word-spacing: 0px; -webkit-text-stroke-width: 0px; white-space: pre; text-decoration-thickness: initial; text-decoration-style: initial; text-decoration-color: initial;&quot;&gt;    (position_embeddings): Embedding(514, 768, padding_idx=1)&lt;br&gt;&lt;/span&gt;&lt;span style=&quot;font-family: Consolas, &amp;quot;Courier New&amp;quot;, monospace; font-size: 14px; font-style: normal; font-variant-ligatures: normal; font-variant-caps: normal; font-weight: 400; letter-spacing: normal; orphans: 2; text-align: start; text-indent: 0px; text-transform: none; widows: 2; word-spacing: 0px; -webkit-text-stroke-width: 0px; white-space: pre; text-decoration-thickness: initial; text-decoration-style: initial; text-decoration-color: initial;&quot;&gt;    (token_type_embeddings): Embedding(1, 768)&lt;br&gt;&lt;/span&gt;&lt;span style=&quot;font-family: Consolas, &amp;quot;Courier New&amp;quot;, monospace; font-size: 14px; font-style: normal; font-variant-ligatures: normal; font-variant-caps: normal; font-weight: 400; letter-spacing: normal; orphans: 2; text-align: start; text-indent: 0px; text-transform: none; widows: 2; word-spacing: 0px; -webkit-text-stroke-width: 0px; white-space: pre; text-decoration-thickness: initial; text-decoration-style: initial; text-decoration-color: initial;&quot;&gt;    (LayerNorm): LayerNorm((768,), eps=1e-12, elementwise_affine=True)&lt;br&gt;&lt;/span&gt;&lt;span style=&quot;font-family: Consolas, &amp;quot;Courier New&amp;quot;, monospace; font-size: 14px; font-style: normal; font-variant-ligatures: normal; font-variant-caps: normal; font-weight: 400; letter-spacing: normal; orphans: 2; text-align: start; text-indent: 0px; text-transform: none; widows: 2; word-spacing: 0px; -webkit-text-stroke-width: 0px; white-space: pre; text-decoration-thickness: initial; text-decoration-style: initial; text-decoration-color: initial;&quot;&gt;    (dropout): Dropout(p=0.1, inplace=False)&lt;br&gt;&lt;/span&gt;&lt;span style=&quot;font-family: Consolas, &amp;quot;Courier New&amp;quot;, monospace; font-size: 14px; font-style: normal; font-variant-ligatures: normal; font-variant-caps: normal; font-weight: 400; letter-spacing: normal; orphans: 2; text-align: start; text-indent: 0px; text-transform: none; widows: 2; word-spacing: 0px; -webkit-text-stroke-width: 0px; white-space: pre; text-decoration-thickness: initial; text-decoration-style: initial; text-decoration-color: initial;&quot;&gt;  )&lt;br&gt;&lt;/span&gt;&lt;span style=&quot;font-family: Consolas, &amp;quot;Courier New&amp;quot;, monospace; font-size: 14px; font-style: normal; font-variant-ligatures: normal; font-variant-caps: normal; font-weight: 400; letter-spacing: normal; orphans: 2; text-align: start; text-indent: 0px; text-transform: none; widows: 2; word-spacing: 0px; -webkit-text-stroke-width: 0px; white-space: pre; text-decoration-thickness: initial; text-decoration-style: initial; text-decoration-color: initial;&quot;&gt;  (encoder): RobertaEncoder(&lt;br&gt;&lt;/span&gt;&lt;span style=&quot;font-family: Consolas, &amp;quot;Courier New&amp;quot;, monospace; font-size: 14px; font-style: normal; font-variant-ligatures: normal; font-variant-caps: normal; font-weight: 400; letter-spacing: normal; orphans: 2; text-align: start; text-indent: 0px; text-transform: none; widows: 2; word-spacing: 0px; -webkit-text-stroke-width: 0px; white-space: pre; text-decoration-thickness: initial; text-decoration-style: initial; text-decoration-color: initial;&quot;&gt;    (layer): ModuleList(&lt;br&gt;&lt;/span&gt;&lt;span style=&quot;font-family: Consolas, &amp;quot;Courier New&amp;quot;, monospace; font-size: 14px; font-style: normal; font-variant-ligatures: normal; font-variant-caps: normal; font-weight: 400; letter-spacing: normal; orphans: 2; text-align: start; text-indent: 0px; text-transform: none; widows: 2; word-spacing: 0px; -webkit-text-stroke-width: 0px; white-space: pre; text-decoration-thickness: initial; text-decoration-style: initial; text-decoration-color: initial;&quot;&gt;      (0-5): 6 x RobertaLayer(&lt;br&gt;&lt;/span&gt;&lt;span style=&quot;font-family: Consolas, &amp;quot;Courier New&amp;quot;, monospace; font-size: 14px; font-style: normal; font-variant-ligatures: normal; font-variant-caps: normal; font-weight: 400; letter-spacing: normal; orphans: 2; text-align: start; text-indent: 0px; text-transform: none; widows: 2; word-spacing: 0px; -webkit-text-stroke-width: 0px; white-space: pre; text-decoration-thickness: initial; text-decoration-style: initial; text-decoration-color: initial;&quot;&gt;        (attention): RobertaAttention(&lt;br&gt;&lt;/span&gt;&lt;span style=&quot;font-family: Consolas, &amp;quot;Courier New&amp;quot;, monospace; font-size: 14px; font-style: normal; font-variant-ligatures: normal; font-variant-caps: normal; font-weight: 400; letter-spacing: normal; orphans: 2; text-align: start; text-indent: 0px; text-transform: none; widows: 2; word-spacing: 0px; -webkit-text-stroke-width: 0px; white-space: pre; text-decoration-thickness: initial; text-decoration-style: initial; text-decoration-color: initial;&quot;&gt;          (self): RobertaSelfAttention(&lt;br&gt;&lt;/span&gt;&lt;span style=&quot;font-family: Consolas, &amp;quot;Courier New&amp;quot;, monospace; font-size: 14px; font-style: normal; font-variant-ligatures: normal; font-variant-caps: normal; font-weight: 400; letter-spacing: normal; orphans: 2; text-align: start; text-indent: 0px; text-transform: none; widows: 2; word-spacing: 0px; -webkit-text-stroke-width: 0px; white-space: pre; text-decoration-thickness: initial; text-decoration-style: initial; text-decoration-color: initial;&quot;&gt;            (query): Linear(in_features=768, out_features=768, bias=True)&lt;br&gt;&lt;/span&gt;&lt;span style=&quot;font-family: Consolas, &amp;quot;Courier New&amp;quot;, monospace; font-size: 14px; font-style: normal; font-variant-ligatures: normal; font-variant-caps: normal; font-weight: 400; letter-spacing: normal; orphans: 2; text-align: start; text-indent: 0px; text-transform: none; widows: 2; word-spacing: 0px; -webkit-text-stroke-width: 0px; white-space: pre; text-decoration-thickness: initial; text-decoration-style: initial; text-decoration-color: initial;&quot;&gt;            (key): Linear(in_features=768, out_features=768, bias=True)&lt;br&gt;&lt;/span&gt;&lt;span style=&quot;font-family: Consolas, &amp;quot;Courier New&amp;quot;, monospace; font-size: 14px; font-style: normal; font-variant-ligatures: normal; font-variant-caps: normal; font-weight: 400; letter-spacing: normal; orphans: 2; text-align: start; text-indent: 0px; text-transform: none; widows: 2; word-spacing: 0px; -webkit-text-stroke-width: 0px; white-space: pre; text-decoration-thickness: initial; text-decoration-style: initial; text-decoration-color: initial;&quot;&gt;            (value): Linear(in_features=768, out_features=768, bias=True)&lt;br&gt;&lt;/span&gt;&lt;span style=&quot;font-family: Consolas, &amp;quot;Courier New&amp;quot;, monospace; font-size: 14px; font-style: normal; font-variant-ligatures: normal; font-variant-caps: normal; font-weight: 400; letter-spacing: normal; orphans: 2; text-align: start; text-indent: 0px; text-transform: none; widows: 2; word-spacing: 0px; -webkit-text-stroke-width: 0px; white-space: pre; text-decoration-thickness: initial; text-decoration-style: initial; text-decoration-color: initial;&quot;&gt;            (dropout): Dropout(p=0.1, inplace=False)&lt;br&gt;&lt;/span&gt;&lt;span style=&quot;font-family: Consolas, &amp;quot;Courier New&amp;quot;, monospace; font-size: 14px; font-style: normal; font-variant-ligatures: normal; font-variant-caps: normal; font-weight: 400; letter-spacing: normal; orphans: 2; text-align: start; text-indent: 0px; text-transform: none; widows: 2; word-spacing: 0px; -webkit-text-stroke-width: 0px; white-space: pre; text-decoration-thickness: initial; text-decoration-style: initial; text-decoration-color: initial;&quot;&gt;          )&lt;br&gt;&lt;/span&gt;&lt;span style=&quot;font-family: Consolas, &amp;quot;Courier New&amp;quot;, monospace; font-size: 14px; font-style: normal; font-variant-ligatures: normal; font-variant-caps: normal; font-weight: 400; letter-spacing: normal; orphans: 2; text-align: start; text-indent: 0px; text-transform: none; widows: 2; word-spacing: 0px; -webkit-text-stroke-width: 0px; white-space: pre; text-decoration-thickness: initial; text-decoration-style: initial; text-decoration-color: initial;&quot;&gt;          (output): RobertaSelfOutput(&lt;br&gt;&lt;/span&gt;&lt;span style=&quot;font-family: Consolas, &amp;quot;Courier New&amp;quot;, monospace; font-size: 14px; font-style: normal; font-variant-ligatures: normal; font-variant-caps: normal; font-weight: 400; letter-spacing: normal; orphans: 2; text-align: start; text-indent: 0px; text-transform: none; widows: 2; word-spacing: 0px; -webkit-text-stroke-width: 0px; white-space: pre; text-decoration-thickness: initial; text-decoration-style: initial; text-decoration-color: initial;&quot;&gt;            (dense): Linear(in_features=768, out_features=768, bias=True)&lt;br&gt;&lt;/span&gt;&lt;span style=&quot;font-family: Consolas, &amp;quot;Courier New&amp;quot;, monospace; font-size: 14px; font-style: normal; font-variant-ligatures: normal; font-variant-caps: normal; font-weight: 400; letter-spacing: normal; orphans: 2; text-align: start; text-indent: 0px; text-transform: none; widows: 2; word-spacing: 0px; -webkit-text-stroke-width: 0px; white-space: pre; text-decoration-thickness: initial; text-decoration-style: initial; text-decoration-color: initial;&quot;&gt;            (LayerNorm): LayerNorm((768,), eps=1e-12, elementwise_affine=True)&lt;br&gt;&lt;/span&gt;&lt;span style=&quot;font-family: Consolas, &amp;quot;Courier New&amp;quot;, monospace; font-size: 14px; font-style: normal; font-variant-ligatures: normal; font-variant-caps: normal; font-weight: 400; letter-spacing: normal; orphans: 2; text-align: start; text-indent: 0px; text-transform: none; widows: 2; word-spacing: 0px; -webkit-text-stroke-width: 0px; white-space: pre; text-decoration-thickness: initial; text-decoration-style: initial; text-decoration-color: initial;&quot;&gt;            (dropout): Dropout(p=0.1, inplace=False)&lt;br&gt;&lt;/span&gt;&lt;span style=&quot;font-family: Consolas, &amp;quot;Courier New&amp;quot;, monospace; font-size: 14px; font-style: normal; font-variant-ligatures: normal; font-variant-caps: normal; font-weight: 400; letter-spacing: normal; orphans: 2; text-align: start; text-indent: 0px; text-transform: none; widows: 2; word-spacing: 0px; -webkit-text-stroke-width: 0px; white-space: pre; text-decoration-thickness: initial; text-decoration-style: initial; text-decoration-color: initial;&quot;&gt;          )&lt;br&gt;&lt;/span&gt;&lt;span style=&quot;font-family: Consolas, &amp;quot;Courier New&amp;quot;, monospace; font-size: 14px; font-style: normal; font-variant-ligatures: normal; font-variant-caps: normal; font-weight: 400; letter-spacing: normal; orphans: 2; text-align: start; text-indent: 0px; text-transform: none; widows: 2; word-spacing: 0px; -webkit-text-stroke-width: 0px; white-space: pre; text-decoration-thickness: initial; text-decoration-style: initial; text-decoration-color: initial;&quot;&gt;        )&lt;br&gt;&lt;/span&gt;&lt;span style=&quot;font-family: Consolas, &amp;quot;Courier New&amp;quot;, monospace; font-size: 14px; font-style: normal; font-variant-ligatures: normal; font-variant-caps: normal; font-weight: 400; letter-spacing: normal; orphans: 2; text-align: start; text-indent: 0px; text-transform: none; widows: 2; word-spacing: 0px; -webkit-text-stroke-width: 0px; white-space: pre; text-decoration-thickness: initial; text-decoration-style: initial; text-decoration-color: initial;&quot;&gt;        (intermediate): RobertaIntermediate(&lt;br&gt;&lt;/span&gt;&lt;span style=&quot;font-family: Consolas, &amp;quot;Courier New&amp;quot;, monospace; font-size: 14px; font-style: normal; font-variant-ligatures: normal; font-variant-caps: normal; font-weight: 400; letter-spacing: normal; orphans: 2; text-align: start; text-indent: 0px; text-transform: none; widows: 2; word-spacing: 0px; -webkit-text-stroke-width: 0px; white-space: pre; text-decoration-thickness: initial; text-decoration-style: initial; text-decoration-color: initial;&quot;&gt;          (dense): Linear(in_features=768, out_features=3072, bias=True)&lt;br&gt;&lt;/span&gt;&lt;span style=&quot;font-family: Consolas, &amp;quot;Courier New&amp;quot;, monospace; font-size: 14px; font-style: normal; font-variant-ligatures: normal; font-variant-caps: normal; font-weight: 400; letter-spacing: normal; orphans: 2; text-align: start; text-indent: 0px; text-transform: none; widows: 2; word-spacing: 0px; -webkit-text-stroke-width: 0px; white-space: pre; text-decoration-thickness: initial; text-decoration-style: initial; text-decoration-color: initial;&quot;&gt;          (intermediate_act_fn): GELUActivation()&lt;br&gt;&lt;/span&gt;&lt;span style=&quot;font-family: Consolas, &amp;quot;Courier New&amp;quot;, monospace; font-size: 14px; font-style: normal; font-variant-ligatures: normal; font-variant-caps: normal; font-weight: 400; letter-spacing: normal; orphans: 2; text-align: start; text-indent: 0px; text-transform: none; widows: 2; word-spacing: 0px; -webkit-text-stroke-width: 0px; white-space: pre; text-decoration-thickness: initial; text-decoration-style: initial; text-decoration-color: initial;&quot;&gt;        )&lt;br&gt;&lt;/span&gt;&lt;span style=&quot;font-family: Consolas, &amp;quot;Courier New&amp;quot;, monospace; font-size: 14px; font-style: normal; font-variant-ligatures: normal; font-variant-caps: normal; font-weight: 400; letter-spacing: normal; orphans: 2; text-align: start; text-indent: 0px; text-transform: none; widows: 2; word-spacing: 0px; -webkit-text-stroke-width: 0px; white-space: pre; text-decoration-thickness: initial; text-decoration-style: initial; text-decoration-color: initial;&quot;&gt;        (output): RobertaOutput(&lt;br&gt;&lt;/span&gt;&lt;span style=&quot;font-family: Consolas, &amp;quot;Courier New&amp;quot;, monospace; font-size: 14px; font-style: normal; font-variant-ligatures: normal; font-variant-caps: normal; font-weight: 400; letter-spacing: normal; orphans: 2; text-align: start; text-indent: 0px; text-transform: none; widows: 2; word-spacing: 0px; -webkit-text-stroke-width: 0px; white-space: pre; text-decoration-thickness: initial; text-decoration-style: initial; text-decoration-color: initial;&quot;&gt;          (dense): Linear(in_features=3072, out_features=768, bias=True)&lt;br&gt;&lt;/span&gt;&lt;span style=&quot;font-family: Consolas, &amp;quot;Courier New&amp;quot;, monospace; font-size: 14px; font-style: normal; font-variant-ligatures: normal; font-variant-caps: normal; font-weight: 400; letter-spacing: normal; orphans: 2; text-align: start; text-indent: 0px; text-transform: none; widows: 2; word-spacing: 0px; -webkit-text-stroke-width: 0px; white-space: pre; text-decoration-thickness: initial; text-decoration-style: initial; text-decoration-color: initial;&quot;&gt;          (LayerNorm): LayerNorm((768,), eps=1e-12, elementwise_affine=True)&lt;br&gt;&lt;/span&gt;&lt;span style=&quot;font-family: Consolas, &amp;quot;Courier New&amp;quot;, monospace; font-size: 14px; font-style: normal; font-variant-ligatures: normal; font-variant-caps: normal; font-weight: 400; letter-spacing: normal; orphans: 2; text-align: start; text-indent: 0px; text-transform: none; widows: 2; word-spacing: 0px; -webkit-text-stroke-width: 0px; white-space: pre; text-decoration-thickness: initial; text-decoration-style: initial; text-decoration-color: initial;&quot;&gt;          (dropout): Dropout(p=0.1, inplace=False)&lt;br&gt;&lt;/span&gt;&lt;span style=&quot;font-family: Consolas, &amp;quot;Courier New&amp;quot;, monospace; font-size: 14px; font-style: normal; font-variant-ligatures: normal; font-variant-caps: normal; font-weight: 400; letter-spacing: normal; orphans: 2; text-align: start; text-indent: 0px; text-transform: none; widows: 2; word-spacing: 0px; -webkit-text-stroke-width: 0px; white-space: pre; text-decoration-thickness: initial; text-decoration-style: initial; text-decoration-color: initial;&quot;&gt;        )&lt;br&gt;&lt;/span&gt;&lt;span style=&quot;font-family: Consolas, &amp;quot;Courier New&amp;quot;, monospace; font-size: 14px; font-style: normal; font-variant-ligatures: normal; font-variant-caps: normal; font-weight: 400; letter-spacing: normal; orphans: 2; text-align: start; text-indent: 0px; text-transform: none; widows: 2; word-spacing: 0px; -webkit-text-stroke-width: 0px; white-space: pre; text-decoration-thickness: initial; text-decoration-style: initial; text-decoration-color: initial;&quot;&gt;      )&lt;br&gt;&lt;/span&gt;&lt;span style=&quot;font-family: Consolas, &amp;quot;Courier New&amp;quot;, monospace; font-size: 14px; font-style: normal; font-variant-ligatures: normal; font-variant-caps: normal; font-weight: 400; letter-spacing: normal; orphans: 2; text-align: start; text-indent: 0px; text-transform: none; widows: 2; word-spacing: 0px; -webkit-text-stroke-width: 0px; white-space: pre; text-decoration-thickness: initial; text-decoration-style: initial; text-decoration-color: initial;&quot;&gt;    )&lt;br&gt;&lt;/span&gt;&lt;span style=&quot;font-family: Consolas, &amp;quot;Courier New&amp;quot;, monospace; font-size: 14px; font-style: normal; font-variant-ligatures: normal; font-variant-caps: normal; font-weight: 400; letter-spacing: normal; orphans: 2; text-align: start; text-indent: 0px; text-transform: none; widows: 2; word-spacing: 0px; -webkit-text-stroke-width: 0px; white-space: pre; text-decoration-thickness: initial; text-decoration-style: initial; text-decoration-color: initial;&quot;&gt;  )&lt;br&gt;&lt;/span&gt;&lt;span style=&quot;font-family: Consolas, &amp;quot;Courier New&amp;quot;, monospace; font-size: 14px; font-style: normal; font-variant-ligatures: normal; font-variant-caps: normal; font-weight: 400; letter-spacing: normal; orphans: 2; text-align: start; text-indent: 0px; text-transform: none; widows: 2; word-spacing: 0px; -webkit-text-stroke-width: 0px; white-space: pre; text-decoration-thickness: initial; text-decoration-style: initial; text-decoration-color: initial;&quot;&gt;  (pooler): RobertaPooler(&lt;br&gt;&lt;/span&gt;&lt;span style=&quot;font-family: Consolas, &amp;quot;Courier New&amp;quot;, monospace; font-size: 14px; font-style: normal; font-variant-ligatures: normal; font-variant-caps: normal; font-weight: 400; letter-spacing: normal; orphans: 2; text-align: start; text-indent: 0px; text-transform: none; widows: 2; word-spacing: 0px; -webkit-text-stroke-width: 0px; white-space: pre; text-decoration-thickness: initial; text-decoration-style: initial; text-decoration-color: initial;&quot;&gt;    (dense): Linear(in_features=768, out_features=768, bias=True)&lt;br&gt;&lt;/span&gt;&lt;span style=&quot;font-family: Consolas, &amp;quot;Courier New&amp;quot;, monospace; font-size: 14px; font-style: normal; font-variant-ligatures: normal; font-variant-caps: normal; font-weight: 400; letter-spacing: normal; orphans: 2; text-align: start; text-indent: 0px; text-transform: none; widows: 2; word-spacing: 0px; -webkit-text-stroke-width: 0px; white-space: pre; text-decoration-thickness: initial; text-decoration-style: initial; text-decoration-color: initial;&quot;&gt;    (activation): Tanh()&lt;br&gt;&lt;/span&gt;&lt;span style=&quot;font-family: Consolas, &amp;quot;Courier New&amp;quot;, monospace; font-size: 14px; font-style: normal; font-variant-ligatures: normal; font-variant-caps: normal; font-weight: 400; letter-spacing: normal; orphans: 2; text-align: start; text-indent: 0px; text-transform: none; widows: 2; word-spacing: 0px; -webkit-text-stroke-width: 0px; white-space: pre; text-decoration-thickness: initial; text-decoration-style: initial; text-decoration-color: initial;&quot;&gt;  )&lt;br&gt;&lt;/span&gt;&lt;span style=&quot;font-family: Consolas, &amp;quot;Courier New&amp;quot;, monospace; font-size: 14px; font-style: normal; font-variant-ligatures: normal; font-variant-caps: normal; font-weight: 400; letter-spacing: normal; orphans: 2; text-align: start; text-indent: 0px; text-transform: none; widows: 2; word-spacing: 0px; -webkit-text-stroke-width: 0px; white-space: pre; text-decoration-thickness: initial; text-decoration-style: initial; text-decoration-color: initial;&quot;&gt;)&lt;/span&gt;" style="text;whiteSpace=wrap;html=1;" vertex="1" parent="1">
          <mxGeometry x="1020" width="560" height="710" as="geometry" />
        </mxCell>
        <mxCell id="jGIwFINWtiYuZmQLNGsj-11" value="Pooling Layer" style="rounded=0;whiteSpace=wrap;html=1;rotation=-90;fillColor=#d5e8d4;strokeColor=#82b366;" vertex="1" parent="1">
          <mxGeometry x="540" y="210" width="240" height="40" as="geometry" />
        </mxCell>
        <mxCell id="jGIwFINWtiYuZmQLNGsj-16" value="Embedding Layer" style="rounded=0;whiteSpace=wrap;html=1;rotation=-90;fillColor=#d5e8d4;strokeColor=#82b366;" vertex="1" parent="1">
          <mxGeometry x="-70" y="210" width="240" height="40" as="geometry" />
        </mxCell>
        <mxCell id="jGIwFINWtiYuZmQLNGsj-17" value="" style="group" vertex="1" connectable="0" parent="1">
          <mxGeometry x="90" y="190" width="20" height="80" as="geometry" />
        </mxCell>
        <mxCell id="jGIwFINWtiYuZmQLNGsj-18" value="" style="shape=flexArrow;endArrow=classic;html=1;rounded=0;width=15.769230769230768;endSize=4.1923076923076925;endWidth=12.352071005917159;fillColor=#dae8fc;strokeColor=#6c8ebf;" edge="1" parent="jGIwFINWtiYuZmQLNGsj-17">
          <mxGeometry width="50" height="50" relative="1" as="geometry">
            <mxPoint as="sourcePoint" />
            <mxPoint x="20" as="targetPoint" />
          </mxGeometry>
        </mxCell>
        <mxCell id="jGIwFINWtiYuZmQLNGsj-19" value="" style="shape=flexArrow;endArrow=classic;html=1;rounded=0;width=15.769230769230768;endSize=4.1923076923076925;endWidth=12.352071005917159;fillColor=#dae8fc;strokeColor=#6c8ebf;" edge="1" parent="jGIwFINWtiYuZmQLNGsj-17">
          <mxGeometry width="50" height="50" relative="1" as="geometry">
            <mxPoint y="80" as="sourcePoint" />
            <mxPoint x="20" y="80" as="targetPoint" />
          </mxGeometry>
        </mxCell>
        <mxCell id="jGIwFINWtiYuZmQLNGsj-20" value="" style="group" vertex="1" connectable="0" parent="1">
          <mxGeometry x="600" y="190" width="20" height="80" as="geometry" />
        </mxCell>
        <mxCell id="jGIwFINWtiYuZmQLNGsj-21" value="" style="shape=flexArrow;endArrow=classic;html=1;rounded=0;width=15.769230769230768;endSize=4.1923076923076925;endWidth=12.352071005917159;fillColor=#dae8fc;strokeColor=#6c8ebf;" edge="1" parent="jGIwFINWtiYuZmQLNGsj-20">
          <mxGeometry width="50" height="50" relative="1" as="geometry">
            <mxPoint as="sourcePoint" />
            <mxPoint x="20" as="targetPoint" />
          </mxGeometry>
        </mxCell>
        <mxCell id="jGIwFINWtiYuZmQLNGsj-22" value="" style="shape=flexArrow;endArrow=classic;html=1;rounded=0;width=15.769230769230768;endSize=4.1923076923076925;endWidth=12.352071005917159;fillColor=#dae8fc;strokeColor=#6c8ebf;" edge="1" parent="jGIwFINWtiYuZmQLNGsj-20">
          <mxGeometry width="50" height="50" relative="1" as="geometry">
            <mxPoint y="80" as="sourcePoint" />
            <mxPoint x="20" y="80" as="targetPoint" />
          </mxGeometry>
        </mxCell>
        <mxCell id="jGIwFINWtiYuZmQLNGsj-23" value="Encoding Layer" style="swimlane;whiteSpace=wrap;html=1;fillColor=#fff2cc;strokeColor=#d6b656;" vertex="1" parent="1">
          <mxGeometry x="120" y="20" width="460" height="370" as="geometry" />
        </mxCell>
        <mxCell id="jGIwFINWtiYuZmQLNGsj-3" value="Encoder" style="swimlane;whiteSpace=wrap;html=1;fillColor=#fff2cc;strokeColor=#d6b656;" vertex="1" parent="jGIwFINWtiYuZmQLNGsj-23">
          <mxGeometry x="20" y="40" width="180" height="310" as="geometry" />
        </mxCell>
        <mxCell id="2" value="Attention Layer" style="rounded=0;whiteSpace=wrap;html=1;rotation=-90;fillColor=#fff2cc;strokeColor=#d6b656;" parent="jGIwFINWtiYuZmQLNGsj-3" vertex="1">
          <mxGeometry x="-90" y="150" width="240" height="40" as="geometry" />
        </mxCell>
        <mxCell id="jGIwFINWtiYuZmQLNGsj-4" value="Intermediate Layer" style="rounded=0;whiteSpace=wrap;html=1;rotation=-90;fillColor=#fff2cc;strokeColor=#d6b656;" vertex="1" parent="jGIwFINWtiYuZmQLNGsj-3">
          <mxGeometry x="-30" y="150" width="240" height="40" as="geometry" />
        </mxCell>
        <mxCell id="jGIwFINWtiYuZmQLNGsj-5" value="Output Layer" style="rounded=0;whiteSpace=wrap;html=1;rotation=-90;fillColor=#fff2cc;strokeColor=#d6b656;" vertex="1" parent="jGIwFINWtiYuZmQLNGsj-3">
          <mxGeometry x="30" y="150" width="240" height="40" as="geometry" />
        </mxCell>
        <mxCell id="jGIwFINWtiYuZmQLNGsj-24" value="Encoder" style="swimlane;whiteSpace=wrap;html=1;fillColor=#fff2cc;strokeColor=#d6b656;" vertex="1" parent="jGIwFINWtiYuZmQLNGsj-23">
          <mxGeometry x="260" y="40" width="180" height="310" as="geometry" />
        </mxCell>
        <mxCell id="jGIwFINWtiYuZmQLNGsj-25" value="Attention Layer" style="rounded=0;whiteSpace=wrap;html=1;rotation=-90;fillColor=#fff2cc;strokeColor=#d6b656;" vertex="1" parent="jGIwFINWtiYuZmQLNGsj-24">
          <mxGeometry x="-90" y="150" width="240" height="40" as="geometry" />
        </mxCell>
        <mxCell id="jGIwFINWtiYuZmQLNGsj-26" value="Intermediate Layer" style="rounded=0;whiteSpace=wrap;html=1;rotation=-90;fillColor=#fff2cc;strokeColor=#d6b656;" vertex="1" parent="jGIwFINWtiYuZmQLNGsj-24">
          <mxGeometry x="-30" y="150" width="240" height="40" as="geometry" />
        </mxCell>
        <mxCell id="jGIwFINWtiYuZmQLNGsj-27" value="Output Layer" style="rounded=0;whiteSpace=wrap;html=1;rotation=-90;fillColor=#fff2cc;strokeColor=#d6b656;" vertex="1" parent="jGIwFINWtiYuZmQLNGsj-24">
          <mxGeometry x="30" y="150" width="240" height="40" as="geometry" />
        </mxCell>
        <mxCell id="jGIwFINWtiYuZmQLNGsj-10" value="&lt;font style=&quot;font-size: 21px;&quot;&gt;. . .&lt;/font&gt;" style="text;html=1;align=center;verticalAlign=middle;whiteSpace=wrap;rounded=0;" vertex="1" parent="jGIwFINWtiYuZmQLNGsj-23">
          <mxGeometry x="200" y="200" width="60" height="30" as="geometry" />
        </mxCell>
        <mxCell id="jGIwFINWtiYuZmQLNGsj-28" value="&lt;font style=&quot;font-size: 21px;&quot;&gt;X6&lt;/font&gt;" style="text;html=1;align=center;verticalAlign=middle;whiteSpace=wrap;rounded=0;" vertex="1" parent="jGIwFINWtiYuZmQLNGsj-23">
          <mxGeometry x="200" y="180" width="60" height="30" as="geometry" />
        </mxCell>
      </root>
    </mxGraphModel>
  </diagram>
</mxfile>
